PathFileType	4	(X/Y/Z)	RBDS012\RBDS012runT25.trc
DataRate	CameraRate	NumFrames	NumMarkers	Units	OrigDataRate	OrigDataStartFrame	OrigNumFrames
150.000000	150.000000	6	33	mm	150.000000	2812	4500
Frame#	Time	L.ASIS			L.Heel.Bottom			L.Heel.Lateral			L.Heel.Top			L.Iliac.Crest			L.MT1			L.MT5			L.PSIS			L.Shank.Bottom.Lateral			L.Shank.Bottom.Medial			L.Shank.Top.Lateral			L.Shank.Top.Medial			L.Thigh.Bottom.Lateral			L.Thigh.Bottom.Medial			L.Thigh.Top.Lateral			L.Thigh.Top.Medial			R.ASIS			R.ASY			R.Heel.Bottom			R.Heel.Lateral			R.Heel.Top			R.Iliac.Crest			R.MT1			R.MT5			R.PSIS			R.Shank.Bottom.Lateral			R.Shank.Bottom.Medial			R.Shank.Top.Lateral			R.Shank.Top.Medial			R.Thigh.Bottom.Lateral			R.Thigh.Bottom.Medial			R.Thigh.Top.Lateral			R.Thigh.Top.Medial			
		X1	Y1	Z1	X2	Y2	Z2	X3	Y3	Z3	X4	Y4	Z4	X5	Y5	Z5	X6	Y6	Z6	X7	Y7	Z7	X8	Y8	Z8	X9	Y9	Z9	X10	Y10	Z10	X11	Y11	Z11	X12	Y12	Z12	X13	Y13	Z13	X14	Y14	Z14	X15	Y15	Z15	X16	Y16	Z16	X17	Y17	Z17	X18	Y18	Z18	X19	Y19	Z19	X20	Y20	Z20	X21	Y21	Z21	X22	Y22	Z22	X23	Y23	Z23	X24	Y24	Z24	X25	Y25	Z25	X26	Y26	Z26	X27	Y27	Z27	X28	Y28	Z28	X29	Y29	Z29	X30	Y30	Z30	X31	Y31	Z31	X32	Y32	Z32	X33	Y33	Z33	

2813	18.74666666666667	2116.960140411699	961.6658087552378	854.4858124186703	1812.773450937904	38.39998890165322	951.2207980727903	1841.340439040506	49.93343800431439	903.0188021459633	1825.784999334598	87.71519867806286	949.7151352972772	2068.239980223603	1033.145766248435	822.9479829369194	2038.264001794579	40.65808205512629	985.4593523995024	2007.448478585882	42.96218309230137	868.6300710534227	1954.118967106846	1019.069772427046	950.782219460263	1942.380184322368	161.3204606774831	889.2958053139971	1900.584653723369	186.7861675441025	915.2172397935874	1972.200530188599	233.5333587424122	869.0778489684296	1933.373516337646	258.5790137036375	896.6400760236247	2119.759027095959	585.6644584530019	825.3568161324627	2053.383918969978	569.8123034213457	851.9768709206817	2083.467563996998	688.4247424601248	806.6439035187942	2023.060016962291	674.9773057492953	835.9036334655874	2129.115068545555	961.085558082548	1125.13210200562	1829.354340055912	313.3056274429879	1048.944141407312	1714.809310660541	476.8273873590246	1070.853082339449	1737.885409048744	457.4682419011634	1105.389159989712	1765.961019290615	481.2472562794626	1069.543677412543	2087.855373587547	1031.927227096471	1155.837206857932	1795.556605442031	277.6627496695189	996.7738582874678	1785.408920749749	286.307018484909	1115.555069262785	1959.296687455291	1010.186588924435	1054.54417894418	1880.831574505518	437.4075879842303	1115.171848318994	1879.442011700846	482.1653552717791	1090.338609188034	1962.072603704582	452.2844116987507	1134.751403614682	1955.908570625798	499.1548073393152	1109.890671812409	2181.644015946948	572.5854115635217	1167.585418344724	2131.409798690879	551.2427899699738	1118.315856103022	2126.926716412224	667.3719554555058	1178.380705829655	2077.935074583554	646.8809029790872	1134.102710366001	
2814	18.75333333333333	2116.733786041711	964.2961268167829	853.9242948632124	1795.939123221172	40.43610263488394	951.1085220596599	1824.563292322835	51.4061863609622	902.8348838387985	1809.235585787536	89.6751590574021	949.267614547432	2069.820201313302	1036.038841670572	822.8627104522319	2021.079538899711	40.63715665263452	985.5728082051068	1990.351336852227	42.98302467523114	868.8600339945201	1954.089801511163	1022.576830784643	950.1108543396147	1926.287969854276	163.2626663029246	889.1328863851322	1884.610617436018	188.9418514981201	915.0500771089556	1956.583755998789	235.3154464000867	868.9453452761712	1917.795128890828	260.5384692211109	896.4160610861608	2108.830667556681	586.3421404293899	825.6107252606873	2042.151565400975	572.477579297583	852.4646343022092	2075.488375226971	690.1061619440495	806.8599051980456	2014.928348240414	678.4935989831981	836.4908409898844	2128.660156052567	965.2255997364458	1124.60389753071	1846.975876068537	304.6790788538425	1046.822192790796	1724.5841625699	462.2826879422141	1068.964398540695	1748.565439706539	444.0116876661451	1103.400991752146	1775.537995890694	469.2420135736259	1067.670870554814	2087.486788673208	1035.788672493685	1155.197002164969	1815.308454001476	267.6111914399126	994.5530700201111	1804.323232007125	275.3270041303313	1113.408723567704	1958.904463934748	1014.0430940181	1054.050349368831	1892.409333501987	430.8803150302451	1113.441443649469	1889.043490950226	475.5029020286132	1088.605330294105	1972.842017153626	449.5100294790593	1133.271174580581	1964.603442800151	495.9800550736311	1108.284220386433	2188.925333378102	580.0850598366897	1167.356673250654	2139.536644576492	557.6158630737145	1117.766283048281	2131.821279446881	673.4255867356607	1178.156198685446	2083.399845898415	651.6765718468203	1133.820795733279	
2815	18.76	2116.712871314567	967.434267907542	853.2829738468234	1779.245565193203	43.12227176097562	951.0074375544229	1807.945426891578	53.39800657561012	902.66480877889	1792.937626538529	92.2408877479332	948.7703958531661	2071.702137034955	1039.497806450455	822.9077926392255	2003.883291434731	40.71980128818097	985.664911713769	1973.254689085588	43.07405745818819	869.1050766446303	1954.336002144726	1026.453490674215	949.5008274111223	1910.190343518706	165.7684385520377	888.8926471874648	1868.651018695567	191.5879487836194	914.8966461467375	1940.854837814146	237.7156770998128	868.7536905381153	1902.090571421255	263.0531321314336	896.1936689876587	2097.561951094029	587.6315464004975	825.8936370047261	2030.670344810608	575.8836868506735	853.0862674095362	2067.321598667258	692.3581427812514	807.1064322816851	2006.712211928311	682.6917098558007	837.2287812766433	2128.481199040126	969.8051289964353	1123.96872903546	1865.157825856683	295.5694267706785	1044.839323961196	1734.760585280111	446.6107190704175	1066.71993801236	1759.569481717371	429.5307176617527	1101.132700369158	1785.346759433125	456.2288501407209	1065.56163164936	2087.260101450261	1040.057556843358	1154.635274641495	1835.835822234614	257.0329643201048	992.4372905622671	1823.830142441022	263.8810557531138	1111.321442928548	1958.736933645264	1018.360586272218	1053.643106157583	1904.011062278856	423.758823787585	1111.674838819772	1898.543927964498	468.1420493202899	1086.783387888041	1983.382784701101	446.3651358249552	1131.772919836721	1972.959660241853	492.3176079388658	1106.653241519398	2195.610392152051	588.0136990228968	1167.068855166515	2147.051374368	564.5453589988381	1117.140181577352	2136.339496065526	679.9364059794738	1177.918774205964	2088.438400437068	657.0373176932825	1133.527745417167	
2816	18.76666666666667	2116.905116609807	971.0589819988071	852.5765848152947	1762.751239411302	46.54383998278444	950.9249779002039	1791.547475736429	55.97964437482989	902.5181435091156	1776.982349000514	95.47860375908212	948.2349769071732	2073.804508182164	1043.523085791295	823.0518224967083	1986.699845969185	40.88472563842641	985.7410337137285	1956.184452636699	43.21989457029211	869.3699840578405	1954.860853926889	1030.67895383644	948.9161224677058	1894.157865184365	168.867857491113	888.5643030806566	1852.786230409147	194.7470067431587	914.7665960551159	1925.070176403472	240.767409297019	868.4991955792233	1886.330414367365	266.1513390035796	895.9894841972958	2086.075542947712	589.5638401543304	826.1796771058496	2019.052456571676	580.0382544814092	853.7732275019063	2059.07931418168	695.1977758663053	807.3625547339733	1998.508780610344	687.5645858065187	838.0505787891673	2128.568250377295	974.791174476637	1123.224359190166	1883.929323321739	286.0873567058653	1043.054573625079	1745.497579190184	429.9331540256646	1064.096585726037	1771.040154263655	414.1494346421416	1098.569116845464	1795.528043694535	442.2899398067211	1063.184687775737	2087.154644262447	1044.733452427461	1154.168004882021	1857.14427514137	246.0430724287222	990.5045500456224	1843.950753156396	252.1321289074295	1109.356567381791	1958.80329007657	1023.104578738634	1053.292720406062	1915.708100880169	416.0777018318079	1109.857030461457	1908.048411180161	460.0974545434939	1084.849386098738	1993.736052274299	442.8250255686312	1130.245791132851	1981.060844185498	488.1244447448211	1104.972652703902	2201.700819825756	596.2347334061491	1166.741028263231	2153.909070094337	571.8887214554877	1116.493952737245	2140.497456616087	686.7958441979656	1177.701967444018	2093.040219151485	662.8559352143525	1133.272959574974	
2817	18.77333333333333	2117.312030259875	975.1315385909228	851.8294831297694	1746.528246702441	50.76691525984469	950.8594706757998	1775.442327872681	59.20769218683333	902.3962233892089	1761.470736082957	99.43390227252438	947.6699169476954	2076.059611485632	1048.083686487981	823.2646646241815	1969.568572709956	41.10814480202171	985.8062529992714	1939.180749365077	43.40332828455165	869.6555740038964	1955.658473775901	1035.225008995182	948.3264207036621	1878.280960638172	172.5745994687876	888.1366609537764	1837.114947878502	198.4240927634132	914.6667748562668	1909.303448798897	244.4877601562814	868.17841756056	1870.605979422524	269.8429368309545	895.8219677292155	2074.505277179728	592.1570175952606	826.4400646700717	2007.419674799127	584.9301480288057	854.4523760050924	2050.878902670795	698.6274093175903	807.6064293448276	1990.416355738659	693.0860672678396	838.8835328296401	2128.902630356545	980.1461863577256	1122.37931180623	1903.308013924036	276.3376174342799	1041.517341385606	1756.938197293522	412.369911162401	1061.092445818493	1783.1055434546	397.9879443798715	1095.712593227715	1806.212001687344	427.5080042094222	1060.522721189649	2087.169146590336	1049.80752851095	1153.798412694505	1879.232819180351	234.7559360737907	988.8266137694375	1864.695595815955	240.2297939461521	1107.572890764853	1959.105386214545	1028.22564948998	1052.972457710824	1927.568023038734	407.8758547157578	1107.971853221081	1917.658605498682	451.3895913074674	1082.78012123151	2003.945128797321	438.8725215314901	1128.675243071376	1988.990526577498	483.366783732514	1103.210407854171	2207.216101140918	604.6139013757593	1166.390904371659	2160.085177316695	579.5002630018918	1115.88575261891	2144.323843216209	693.8975744730368	1177.536077981524	2097.210933618228	669.0245821666082	1133.103619851801	
2818	18.78	2117.928665221461	979.5969897539139	851.0725753909227	1730.659579022234	55.83450193341204	950.7966077170369	1759.711832309869	63.12180469397789	902.2887208119198	1746.507379796319	104.1294840168452	947.0766726619853	2078.416738943886	1053.118549074754	823.5211870593616	1952.542701143467	41.36997518794072	985.8632908013766	1922.297332075362	43.61050307565254	869.9567553779285	1956.71464849023	1040.054526845747	947.7119379294755	1862.665941290705	176.8828482161571	887.5983433510004	1821.748967086733	202.6055858065995	914.5980903994129	1893.645113803491	248.8741165077575	867.7876673182707	1855.026590139276	274.1172054206365	895.7075416801719	2062.987569199072	595.4111058895875	826.6467477769621	1995.896948113756	590.5272085854803	855.0556569764043	2042.834576357601	702.6308309377035	807.8171043969539	1982.528812411524	699.2096290145249	839.6574389364795	2129.459722966264	985.8249744029946	1121.451289855848	1923.297867158551	266.4166598950002	1040.264077136192	1769.205365972776	394.0358812461192	1057.727076258122	1795.874188566478	381.1595704718234	1092.582464070667	1817.51436665382	411.9652263285031	1057.573884389131	2087.317007785656	1055.256875225175	1153.518198446236	1902.094554007632	223.2847276369783	987.4663533734155	1886.063586108179	228.3071719113654	1106.022499855005	1959.637602359354	1033.66056458482	1052.661501642954	1939.651067606089	399.1954084476828	1106.006351674622	1927.468896984959	442.0448508410649	1080.556635215582	2014.053111958935	434.4979182245751	1127.046111844053	1996.828201647835	478.0213939094365	1101.332850162655	2212.187772332823	613.0232457401877	1166.031902945816	2165.572160975811	587.236114378555	1115.370706421575	2147.855114736486	701.1408388950201	1177.441770371839	2100.968801998435	675.4388890018263	1133.058240693334	
